<svg width="466" height="471.99999999999994" xmlns="http://www.w3.org/2000/svg">
 <!-- Created with SVG Editor - http://github.com/mzalive/SVG Editor/ -->

 <g>
  <title>background</title>
  <rect fill="#fff" id="canvas_background" height="474" width="468" y="-1" x="-1"/>
  <g display="none" overflow="visible" y="0" x="0" height="100%" width="100%" id="canvasGrid">
   <rect fill="url(#gridpattern)" stroke-width="0" y="0" x="0" height="100%" width="100%"/>
  </g>
 </g>
 <g>
  <title>Layer 1</title>
  <g stroke="null" id="svg_24">
   <g stroke="null" transform="matrix(0.9889537576382794,0,0,0.9922065336545148,-3388.8903615311046,-2283.5516677885257) " id="svg_5">
    <g stroke="null" id="svg_6">
     <path stroke="null" fill="#fc0000" stroke-width="0" id="svg_7" d="m3662.343965,2630.696568c25.128,0 46.632,-8.946 64.523,-26.83c17.888,-17.884 26.833,-39.399 26.833,-64.525l0,-146.177c0,-25.126 -8.938,-46.632 -26.833,-64.525c-17.891,-17.889 -39.395,-26.84 -64.523,-26.84c-25.125,0 -46.632,8.951 -64.524,26.84c-17.893,17.89 -26.838,39.399 -26.838,64.525l0,146.177c0,25.125 8.949,46.641 26.838,64.525c17.889,17.884 39.399,26.83 64.524,26.83z"/>
     <path stroke="null" fill="#fc0000" stroke-width="0" id="svg_8" d="m3821.365965,2489.949568c-3.606,-3.617 -7.898,-5.426 -12.847,-5.426c-4.944,0 -9.226,1.809 -12.847,5.426c-3.613,3.616 -5.421,7.898 -5.421,12.845l0,36.547c0,35.214 -12.518,65.333 -37.548,90.362c-25.022,25.03 -55.145,37.545 -90.36,37.545c-35.214,0 -65.334,-12.515 -90.365,-37.545c-25.028,-25.022 -37.541,-55.147 -37.541,-90.362l0,-36.547c0,-4.947 -1.809,-9.229 -5.424,-12.845c-3.617,-3.617 -7.895,-5.426 -12.847,-5.426c-4.952,0 -9.235,1.809 -12.85,5.426c-3.618,3.616 -5.426,7.898 -5.426,12.845l0,36.547c0,42.065 14.04,78.659 42.112,109.776c28.073,31.118 62.762,48.961 104.068,53.526l0,37.691l-73.089,0c-4.949,0 -9.231,1.811 -12.847,5.428c-3.617,3.614 -5.426,7.898 -5.426,12.847c0,4.941 1.809,9.233 5.426,12.847c3.616,3.614 7.898,5.428 12.847,5.428l182.719,0c4.948,0 9.236,-1.813 12.847,-5.428c3.621,-3.613 5.431,-7.905 5.431,-12.847c0,-4.948 -1.81,-9.232 -5.431,-12.847c-3.61,-3.617 -7.898,-5.428 -12.847,-5.428l-73.08,0l0,-37.691c41.299,-4.565 75.985,-22.408 104.061,-53.526c28.076,-31.117 42.12,-67.711 42.12,-109.776l0,-36.547c0,-4.946 -1.813,-9.225 -5.435,-12.845z"/>
    </g>
   </g>
   <g stroke="null" transform="matrix(0.9889537576382794,0,0,0.9922065336545148,-3388.8903615311046,-2283.5516677885257) " id="svg_9"/>
   <g stroke="null" transform="matrix(0.9889537576382794,0,0,0.9922065336545148,-3388.8903615311046,-2283.5516677885257) " id="svg_10"/>
   <g stroke="null" transform="matrix(0.9889537576382794,0,0,0.9922065336545148,-3388.8903615311046,-2283.5516677885257) " id="svg_11"/>
   <g stroke="null" transform="matrix(0.9889537576382794,0,0,0.9922065336545148,-3388.8903615311046,-2283.5516677885257) " id="svg_12"/>
   <g stroke="null" transform="matrix(0.9889537576382794,0,0,0.9922065336545148,-3388.8903615311046,-2283.5516677885257) " id="svg_13"/>
   <g stroke="null" transform="matrix(0.9889537576382794,0,0,0.9922065336545148,-3388.8903615311046,-2283.5516677885257) " id="svg_14"/>
   <g stroke="null" transform="matrix(0.9889537576382794,0,0,0.9922065336545148,-3388.8903615311046,-2283.5516677885257) " id="svg_15"/>
   <g stroke="null" transform="matrix(0.9889537576382794,0,0,0.9922065336545148,-3388.8903615311046,-2283.5516677885257) " id="svg_16"/>
   <g stroke="null" transform="matrix(0.9889537576382794,0,0,0.9922065336545148,-3388.8903615311046,-2283.5516677885257) " id="svg_17"/>
   <g stroke="null" transform="matrix(0.9889537576382794,0,0,0.9922065336545148,-3388.8903615311046,-2283.5516677885257) " id="svg_18"/>
   <g stroke="null" transform="matrix(0.9889537576382794,0,0,0.9922065336545148,-3388.8903615311046,-2283.5516677885257) " id="svg_19"/>
   <g stroke="null" transform="matrix(0.9889537576382794,0,0,0.9922065336545148,-3388.8903615311046,-2283.5516677885257) " id="svg_20"/>
   <g stroke="null" transform="matrix(0.9889537576382794,0,0,0.9922065336545148,-3388.8903615311046,-2283.5516677885257) " id="svg_21"/>
   <g stroke="null" transform="matrix(0.9889537576382794,0,0,0.9922065336545148,-3388.8903615311046,-2283.5516677885257) " id="svg_22"/>
   <g stroke="null" transform="matrix(0.9889537576382794,0,0,0.9922065336545148,-3388.8903615311046,-2283.5516677885257) " id="svg_23"/>
  </g>
  <!-- Created with SVG Editor - http://github.com/mzalive/SVG Editor/ -->
 </g>
</svg>