<?xml version="1.0" encoding="utf-8"?>
<!-- Generator: Adobe Illustrator 25.2.1, SVG Export Plug-In . SVG Version: 6.00 Build 0)  -->
<svg version="1.1" id="Слой_1" xmlns="http://www.w3.org/2000/svg" xmlns:xlink="http://www.w3.org/1999/xlink" x="0px" y="0px"
	 viewBox="0 0 512 512" style="enable-background:new 0 0 512 512;" xml:space="preserve">
<g>
	<path d="M131.06,149.94c-10.78-6.5-19.42-15.14-25.93-25.93s-9.75-22.59-9.75-35.43c0-13.17,3.25-25.1,9.75-35.8
		s15.14-19.22,25.93-25.56c10.78-6.34,22.67-9.59,35.68-9.75c13,0,24.86,3.17,35.56,9.51s19.3,14.9,25.8,25.68
		s9.75,22.76,9.75,35.93c0,12.84-3.25,24.65-9.75,35.43s-15.1,19.42-25.8,25.93c-10.7,6.5-22.55,9.75-35.56,9.75
		S141.84,156.44,131.06,149.94z"/>
	<path d="M131.06,317.47c-10.78-6.42-19.42-15.02-25.93-25.8s-9.75-22.67-9.75-35.68s3.25-24.86,9.75-35.56s15.14-19.26,25.93-25.68
		c10.78-6.42,22.67-9.63,35.68-9.63c13-0.16,24.86,2.96,35.56,9.38s19.3,15.02,25.8,25.8s9.75,22.67,9.75,35.68
		s-3.25,24.9-9.75,35.68s-15.1,19.38-25.8,25.8c-10.7,6.42-22.55,9.63-35.56,9.63S141.84,323.89,131.06,317.47z"/>
	<path d="M131.06,484.9c-10.78-6.42-19.42-15.02-25.93-25.8s-9.75-22.67-9.75-35.68s3.25-24.86,9.75-35.56
		c6.5-10.7,15.14-19.26,25.93-25.68c10.78-6.42,22.67-9.63,35.68-9.63s24.86,3.21,35.56,9.63c10.7,6.42,19.3,14.98,25.8,25.68
		c6.5,10.7,9.75,22.55,9.75,35.56s-3.25,24.9-9.75,35.68s-15.1,19.38-25.8,25.8c-10.7,6.42-22.55,9.63-35.56,9.63
		S141.84,491.32,131.06,484.9z"/>
	<path d="M310.2,149.94c-10.7-6.5-19.26-15.14-25.68-25.93c-6.42-10.78-9.63-22.59-9.63-35.43c0-13.17,3.21-25.1,9.63-35.8
		c6.42-10.7,14.98-19.22,25.68-25.56s22.55-9.59,35.56-9.75c13,0,24.86,3.17,35.56,9.51c10.7,6.34,19.26,14.9,25.68,25.68
		c6.42,10.78,9.63,22.76,9.63,35.93c0,12.84-3.21,24.65-9.63,35.43c-6.42,10.78-14.98,19.42-25.68,25.93
		c-10.7,6.5-22.55,9.75-35.56,9.75S320.9,156.44,310.2,149.94z"/>
	<path d="M310.2,317.47c-10.7-6.42-19.26-15.02-25.68-25.8c-6.42-10.78-9.63-22.67-9.63-35.68s3.21-24.86,9.63-35.56
		c6.42-10.7,14.98-19.26,25.68-25.68s22.55-9.63,35.56-9.63c13-0.16,24.86,2.96,35.56,9.38c10.7,6.42,19.26,15.02,25.68,25.8
		c6.42,10.78,9.63,22.67,9.63,35.68s-3.21,24.9-9.63,35.68c-6.42,10.78-14.98,19.38-25.68,25.8c-10.7,6.42-22.55,9.63-35.56,9.63
		S320.9,323.89,310.2,317.47z"/>
	<path d="M310.2,484.9c-10.7-6.42-19.26-15.02-25.68-25.8c-6.42-10.78-9.63-22.67-9.63-35.68s3.21-24.86,9.63-35.56
		c6.42-10.7,14.98-19.26,25.68-25.68c10.7-6.42,22.55-9.63,35.56-9.63s24.86,3.21,35.56,9.63c10.7,6.42,19.26,14.98,25.68,25.68
		c6.42,10.7,9.63,22.55,9.63,35.56s-3.21,24.9-9.63,35.68c-6.42,10.78-14.98,19.38-25.68,25.8c-10.7,6.42-22.55,9.63-35.56,9.63
		S320.9,491.32,310.2,484.9z"/>
</g>
</svg>
