<?xml version="1.0" encoding="utf-8"?>
<!-- Generator: Adobe Illustrator 25.2.1, SVG Export Plug-In . SVG Version: 6.00 Build 0)  -->
<svg version="1.1" id="Слой_1" xmlns="http://www.w3.org/2000/svg" xmlns:xlink="http://www.w3.org/1999/xlink" x="0px" y="0px"
	 viewBox="0 0 512 512" style="enable-background:new 0 0 512 512;" xml:space="preserve">
<g>
	<path d="M160.95,485.43c-30.16-13.04-56.75-31.07-79.76-54.09s-41.04-49.6-54.09-79.76C14.06,321.4,7.54,289.2,7.54,254.97
		s6.52-66.43,19.57-96.59s31.03-56.75,53.96-79.76s49.48-41.04,79.64-54.09s62.35-19.57,96.59-19.57s66.47,6.52,96.71,19.57
		c30.24,13.04,56.83,31.07,79.76,54.09s40.96,49.6,54.09,79.76s19.69,62.35,19.69,96.59s-6.56,66.43-19.69,96.61
		c-13.13,30.16-31.16,56.75-54.09,79.76s-49.48,41.04-79.64,54.09c-30.16,13.04-62.35,19.57-96.59,19.57
		S191.11,498.47,160.95,485.43z M342.28,455.89c26.42-11.3,49.6-26.92,69.54-46.86s35.52-43.08,46.73-69.44
		c11.22-26.34,16.82-54.54,16.82-84.62s-5.65-58.28-16.95-84.62s-26.96-49.52-46.98-69.54c-20.02-20.02-43.16-35.64-69.42-46.86
		c-26.25-11.22-54.5-16.82-84.75-16.82c-30.08,0-58.28,5.61-84.62,16.82s-49.44,26.84-69.29,46.86s-35.39,43.2-46.61,69.54
		s-16.82,54.54-16.82,84.62s5.61,58.28,16.82,84.62c11.22,26.36,26.79,49.5,46.73,69.44s43.04,35.56,69.29,46.86
		s54.5,16.95,84.75,16.95C287.62,472.84,315.86,467.19,342.28,455.89z M72.1,265.44c-3.16-2.49-4.74-5.82-4.74-9.97
		c0-4.15,1.58-7.56,4.74-10.22l43.12-33.65c4.65-3.66,9.35-4.53,14.08-2.62s7.1,5.94,7.1,12.09v68.54c0,5.82-2.41,9.72-7.23,11.71
		c-4.82,1.99-9.47,1.16-13.96-2.49L72.1,265.44z M209.31,338.1c-14.54-8.72-26.13-20.36-34.77-34.9
		c-8.64-14.54-12.96-30.53-12.96-47.98s4.32-33.44,12.96-47.98c8.64-14.54,20.23-26.17,34.77-34.9
		c14.54-8.72,30.53-13.09,47.98-13.09c17.45,0,33.48,4.36,48.11,13.09c14.62,8.72,26.3,20.36,35.02,34.9s13.09,30.53,13.09,47.98
		s-4.36,33.44-13.09,47.98c-8.72,14.54-20.4,26.17-35.02,34.9c-14.62,8.74-30.66,13.11-48.11,13.11
		C239.84,351.2,223.85,346.84,209.31,338.1z M267.76,440.68c-2.66,3.32-6.02,4.99-10.09,4.99c-4.07,0-7.44-1.66-10.09-4.99
		l-33.65-42.87c-3.66-4.65-4.53-9.39-2.62-14.21s5.86-7.23,11.84-7.23h68.79c5.98,0,9.93,2.41,11.84,7.23
		c1.91,4.82,1.04,9.55-2.62,14.21L267.76,440.68z M303.78,126.86c-1.91,4.82-5.86,7.23-11.84,7.23h-68.79
		c-5.98,0-9.93-2.37-11.84-7.1c-1.91-4.74-1.04-9.35,2.62-13.83l33.65-43.12c2.66-3.32,6.02-4.99,10.09-4.99
		c4.07,0,7.44,1.66,10.09,4.99l33.4,43.12C304.81,117.47,305.69,122.04,303.78,126.86z M385.9,301.33
		c-4.82-1.99-7.23-5.9-7.23-11.71v-68.54c0-6.15,2.41-10.18,7.23-12.09s9.47-1.04,13.96,2.62l43.12,33.65
		c3.32,2.66,4.99,6.07,4.99,10.22c0,4.15-1.66,7.48-4.99,9.97l-43.12,33.4C395.38,302.49,390.72,303.33,385.9,301.33z"/>
</g>
</svg>
