<?xml version="1.0" encoding="iso-8859-1"?>
<!-- Generator: Adobe Illustrator 19.0.0, SVG Export Plug-In . SVG Version: 6.00 Build 0)  -->
<svg version="1.1" id="Layer_1" xmlns="http://www.w3.org/2000/svg" xmlns:xlink="http://www.w3.org/1999/xlink" x="0px" y="0px"
	 viewBox="0 0 512 512" style="enable-background:new 0 0 512 512;" xml:space="preserve">
<g>
	<g>
		<rect x="163.136" y="68.008" width="186.064" height="16"/>
	</g>
</g>
<g>
	<g>
		<rect x="163.136" y="115.384" width="348.864" height="16"/>
	</g>
</g>
<g>
	<g>
		<path d="M0,48.232v102.944h101.36V48.232H0z M85.36,135.16H16V64.232h69.36V135.16z"/>
	</g>
</g>
<g>
	<g>
		<rect x="163.136" y="224.312" width="186.064" height="16"/>
	</g>
</g>
<g>
	<g>
		<rect x="163.136" y="271.672" width="348.864" height="16"/>
	</g>
</g>
<g>
	<g>
		<path d="M0,204.52v102.944h101.36V204.52H0z M85.36,291.464H16V220.52h69.36V291.464z"/>
	</g>
</g>
<g>
	<g>
		<rect x="163.136" y="380.6" width="186.064" height="16"/>
	</g>
</g>
<g>
	<g>
		<rect x="163.136" y="427.976" width="348.864" height="16"/>
	</g>
</g>
<g>
	<g>
		<path d="M0,360.824v102.944h101.36V360.824H0z M85.36,447.752H16v-70.944h69.36V447.752z"/>
	</g>
</g>
<g>
</g>
<g>
</g>
<g>
</g>
<g>
</g>
<g>
</g>
<g>
</g>
<g>
</g>
<g>
</g>
<g>
</g>
<g>
</g>
<g>
</g>
<g>
</g>
<g>
</g>
<g>
</g>
<g>
</g>
</svg>
