<?xml version="1.0" encoding="utf-8"?>
<!-- Generator: Adobe Illustrator 25.2.1, SVG Export Plug-In . SVG Version: 6.00 Build 0)  -->
<svg version="1.1" id="Слой_1" xmlns="http://www.w3.org/2000/svg" xmlns:xlink="http://www.w3.org/1999/xlink" x="0px" y="0px"
	 viewBox="0 0 512 512" style="enable-background:new 0 0 512 512;" xml:space="preserve">
<g>
	<path d="M159.79,486.12c-30.16-13.04-56.75-31.07-79.76-54.09s-41.04-49.6-54.09-79.76S6.38,289.92,6.38,255.69
		s6.52-66.43,19.57-96.59s31.03-56.75,53.96-79.76s49.48-41.04,79.64-54.09S221.9,5.69,256.13,5.69s66.47,6.52,96.71,19.57
		c30.24,13.04,56.83,31.07,79.76,54.09s40.96,49.6,54.09,79.76s19.69,62.35,19.69,96.59s-6.56,66.43-19.69,96.59
		s-31.16,56.75-54.09,79.76s-49.48,41.04-79.64,54.09c-30.16,13.04-62.35,19.57-96.59,19.57S189.95,499.17,159.79,486.12z
		 M341.13,456.59c26.42-11.3,49.6-26.92,69.54-46.86s35.52-43.08,46.73-69.42s16.82-54.54,16.82-84.62s-5.65-58.28-16.95-84.62
		s-26.96-49.52-46.98-69.54s-43.16-35.64-69.42-46.86s-54.5-16.82-84.75-16.82c-30.08,0-58.28,5.61-84.62,16.82
		s-49.44,26.84-69.29,46.86s-35.39,43.2-46.61,69.54s-16.82,54.54-16.82,84.62s5.61,58.28,16.82,84.62s26.79,49.48,46.73,69.42
		s43.04,35.56,69.29,46.86c26.25,11.3,54.5,16.95,84.75,16.95C286.46,473.54,314.7,467.89,341.13,456.59z M146.09,267.28
		c-3.07-2.91-4.61-6.61-4.61-11.09c0-4.82,1.5-8.72,4.49-11.71c2.99-2.99,6.98-4.49,11.96-4.49h196.91c4.82,0,8.72,1.5,11.71,4.49
		c2.99,2.99,4.49,6.9,4.49,11.71c0,4.49-1.54,8.18-4.61,11.09c-3.07,2.91-6.94,4.36-11.59,4.36H157.92
		C153.11,271.64,149.16,270.19,146.09,267.28z M244.66,366.11c-2.82-2.99-4.24-6.9-4.24-11.71V157.48c0-4.82,1.41-8.77,4.24-11.84
		s6.56-4.61,11.22-4.61c4.82,0,8.72,1.54,11.71,4.61s4.49,7.02,4.49,11.84v196.91c0,4.82-1.5,8.72-4.49,11.71s-6.9,4.49-11.71,4.49
		C251.23,370.59,247.49,369.1,244.66,366.11z"/>
</g>
</svg>
