<?xml version="1.0" encoding="utf-8"?>
<!-- Generator: Adobe Illustrator 25.2.1, SVG Export Plug-In . SVG Version: 6.00 Build 0)  -->
<svg version="1.1" id="Слой_1" xmlns="http://www.w3.org/2000/svg" xmlns:xlink="http://www.w3.org/1999/xlink" x="0px" y="0px"
	 viewBox="0 0 512 512" style="enable-background:new 0 0 512 512;" xml:space="preserve">
<g>
	<path d="M159.41,486.43c-30.16-13.04-56.75-31.07-79.76-54.09c-23.01-23.01-41.04-49.6-54.09-79.76S6,290.23,6,256
		s6.52-66.43,19.57-96.59s31.03-56.75,53.96-79.76s49.48-41.04,79.64-54.09S221.52,6,255.75,6s66.47,6.52,96.71,19.57
		c30.24,13.04,56.83,31.07,79.76,54.09s40.96,49.6,54.09,79.76S506,221.77,506,256s-6.56,66.43-19.69,96.59
		s-31.16,56.75-54.09,79.76c-22.93,23.01-49.48,41.04-79.64,54.09C322.43,499.48,290.23,506,256,506S189.57,499.48,159.41,486.43z
		 M340.75,456.9c26.42-11.3,49.6-26.92,69.54-46.86c19.94-19.94,35.52-43.08,46.73-69.42c11.22-26.34,16.82-54.54,16.82-84.62
		s-5.65-58.28-16.95-84.62s-26.96-49.52-46.98-69.54c-20.02-20.02-43.16-35.64-69.42-46.86c-26.25-11.22-54.5-16.82-84.75-16.82
		c-30.08,0-58.28,5.61-84.62,16.82s-49.44,26.84-69.29,46.86s-35.39,43.2-46.61,69.54S38.4,225.92,38.4,256s5.61,58.28,16.82,84.62
		c11.22,26.34,26.79,49.48,46.73,69.42c19.94,19.94,43.04,35.56,69.29,46.86s54.5,16.95,84.75,16.95
		C286.08,473.85,314.33,468.2,340.75,456.9z M116.79,280.18c-6.56-6.65-9.85-14.71-9.85-24.18c0-9.31,3.28-17.28,9.85-23.93
		c6.56-6.65,14.66-9.97,24.3-9.97c9.14,0,17.03,3.32,23.68,9.97c6.65,6.65,9.97,14.62,9.97,23.93c0,9.47-3.28,17.53-9.85,24.18
		s-14.5,9.97-23.8,9.97C131.46,290.15,123.36,286.82,116.79,280.18z M231.82,280.18c-6.65-6.65-9.97-14.71-9.97-24.18
		c0-9.31,3.32-17.28,9.97-23.93c6.65-6.65,14.62-9.97,23.93-9.97c9.31,0,17.28,3.32,23.93,9.97c6.65,6.65,9.97,14.62,9.97,23.93
		c0,9.47-3.32,17.53-9.97,24.18s-14.62,9.97-23.93,9.97C246.45,290.15,238.47,286.82,231.82,280.18z M346.73,280.18
		c-6.65-6.65-9.97-14.71-9.97-24.18c0-9.31,3.32-17.28,9.97-23.93c6.65-6.65,14.71-9.97,24.18-9.97c9.31,0,17.24,3.32,23.8,9.97
		c6.56,6.65,9.85,14.62,9.85,23.93c0,9.47-3.28,17.53-9.85,24.18c-6.56,6.65-14.5,9.97-23.8,9.97
		C361.43,290.15,353.37,286.82,346.73,280.18z"/>
</g>
</svg>
