<?xml version="1.0" encoding="utf-8"?>
<!-- Generator: Adobe Illustrator 25.2.1, SVG Export Plug-In . SVG Version: 6.00 Build 0)  -->
<svg version="1.1" id="Слой_1" xmlns="http://www.w3.org/2000/svg" xmlns:xlink="http://www.w3.org/1999/xlink" x="0px" y="0px"
	 viewBox="0 0 512 512" style="enable-background:new 0 0 512 512;" xml:space="preserve">
<g>
	<path d="M159.41,486.43c-30.16-13.04-56.75-31.07-79.76-54.09c-23.01-23.01-41.04-49.6-54.09-79.76S6,290.23,6,256
		s6.52-66.43,19.57-96.59s31.03-56.75,53.96-79.76s49.48-41.04,79.64-54.09S221.52,6,255.75,6s66.47,6.52,96.71,19.57
		c30.24,13.04,56.83,31.07,79.76,54.09s40.96,49.6,54.09,79.76S506,221.77,506,256s-6.56,66.43-19.69,96.59
		s-31.16,56.75-54.09,79.76c-22.93,23.01-49.48,41.04-79.64,54.09C322.43,499.48,290.23,506,256,506S189.57,499.48,159.41,486.43z
		 M340.75,456.9c26.42-11.3,49.6-26.92,69.54-46.86c19.94-19.94,35.52-43.08,46.73-69.42c11.22-26.34,16.82-54.54,16.82-84.62
		s-5.65-58.28-16.95-84.62s-26.96-49.52-46.98-69.54c-20.02-20.02-43.16-35.64-69.42-46.86c-26.25-11.22-54.5-16.82-84.75-16.82
		c-30.08,0-58.28,5.61-84.62,16.82s-49.44,26.84-69.29,46.86s-35.39,43.2-46.61,69.54S38.4,225.92,38.4,256s5.61,58.28,16.82,84.62
		c11.22,26.34,26.79,49.48,46.73,69.42c19.94,19.94,43.04,35.56,69.29,46.86s54.5,16.95,84.75,16.95
		C286.08,473.85,314.33,468.2,340.75,456.9z M193.44,355.2c-4.82-1.99-7.23-5.73-7.23-11.22V168.51c0-5.48,2.49-9.22,7.48-11.22
		s9.89-1.5,14.71,1.5l142.57,85.49c4.65,2.82,7.02,6.9,7.1,12.21c0.08,5.32-2.28,9.47-7.1,12.46l-142.57,84.75
		C203.24,356.7,198.26,357.2,193.44,355.2z"/>
</g>
</svg>
