<?xml version="1.0" encoding="utf-8"?>
<!-- Generator: Adobe Illustrator 25.2.1, SVG Export Plug-In . SVG Version: 6.00 Build 0)  -->
<svg version="1.1" id="Слой_1" xmlns="http://www.w3.org/2000/svg" xmlns:xlink="http://www.w3.org/1999/xlink" x="0px" y="0px"
	 viewBox="0 0 512 512" style="enable-background:new 0 0 512 512;" xml:space="preserve">
<g>
	<path d="M159.55,486.39c-30.15-13.07-56.74-31.13-79.78-54.17s-41.09-49.63-54.17-79.78S6,290.15,6,256s6.54-66.3,19.61-96.45
		s31.09-56.74,54.04-79.78s49.51-41.09,79.66-54.17S221.6,6,255.75,6s66.34,6.54,96.57,19.61s56.86,31.13,79.9,54.17
		s41.09,49.63,54.17,79.78S506,221.85,506,256s-6.54,66.3-19.61,96.45s-31.13,56.74-54.17,79.78s-49.63,41.09-79.78,54.17
		S290.15,506,256,506S189.7,499.46,159.55,486.39z M353.55,269.97c5.23-3.27,7.8-7.84,7.72-13.73c-0.08-5.88-2.66-10.38-7.72-13.48
		l-144.12-85.29c-5.39-3.1-10.95-3.59-16.67-1.47c-5.72,2.12-8.58,6.21-8.58,12.25v175.74c0,6.05,2.74,10.25,8.21,12.62
		c5.47,2.37,11.15,1.76,17.03-1.84L353.55,269.97z"/>
</g>
</svg>
