<?xml version="1.0" encoding="utf-8"?>
<!-- Generator: Adobe Illustrator 25.2.1, SVG Export Plug-In . SVG Version: 6.00 Build 0)  -->
<svg version="1.1" id="Слой_1" xmlns="http://www.w3.org/2000/svg" xmlns:xlink="http://www.w3.org/1999/xlink" x="0px" y="0px"
	 viewBox="0 0 512 512" style="enable-background:new 0 0 512 512;" xml:space="preserve">
<g>
	<path d="M159.49,486.06c-30.18-13-56.73-30.98-79.68-53.92c-22.95-22.95-40.92-49.5-53.93-79.68c-13-30.17-19.51-62.42-19.51-96.76
		c0-34.33,6.5-66.59,19.51-96.76c13-30.17,30.98-56.73,53.93-79.68s49.5-40.92,79.68-53.93c30.17-13,62.43-19.51,96.76-19.51
		c34.33,0,66.59,6.5,96.76,19.51c30.17,13,56.73,30.98,79.68,53.93s40.96,49.51,54.05,79.68c13.09,30.17,19.63,62.43,19.63,96.76
		c0,34.34-6.54,66.59-19.63,96.76c-13.09,30.17-31.11,56.73-54.05,79.68c-22.95,22.95-49.46,40.92-79.55,53.92
		c-30.09,13-62.38,19.51-96.89,19.51C221.92,505.56,189.66,499.06,159.49,486.06z M346,468.34c27.88-11.9,52.4-28.43,73.56-49.59
		c21.16-21.16,37.69-45.68,49.59-73.56c11.89-27.87,17.85-57.71,17.85-89.5c0-31.78-5.95-61.62-17.85-89.5
		c-11.9-27.87-28.47-52.44-49.72-73.69c-21.25-21.25-45.77-37.82-73.56-49.72c-27.79-11.9-57.67-17.85-89.62-17.85
		c-31.79,0-61.62,5.95-89.5,17.85c-27.88,11.9-52.4,28.47-73.56,49.72c-21.16,21.25-37.7,45.81-49.59,73.69
		c-11.9,27.88-17.85,57.71-17.85,89.5c0,31.79,5.95,61.62,17.85,89.5c11.89,27.88,28.43,52.4,49.59,73.56
		c21.16,21.16,45.68,37.69,73.56,49.59c27.88,11.9,57.71,17.85,89.5,17.85C288.21,486.18,318.12,480.23,346,468.34z M173.64,399.37
		c-5.27-4.84-8.07-11-8.41-18.49l-10.71-216.22h-26.01c-2.04,0-3.79-0.72-5.23-2.17c-1.44-1.44-2.17-3.1-2.17-4.97
		c0-1.87,0.72-3.52,2.17-4.97c1.44-1.44,3.19-2.17,5.23-2.17h69.86v-23.97c0-8.33,2.84-15.25,8.54-20.78
		c5.69-5.52,13.3-8.29,22.82-8.29h54.56c9.52,0,17.21,2.76,23.07,8.29c5.86,5.53,8.8,12.45,8.8,20.78v23.97h67.82
		c2.04,0,3.78,0.72,5.23,2.17c1.44,1.45,2.17,3.1,2.17,4.97c0,1.87-0.73,3.53-2.17,4.97c-1.44,1.45-3.19,2.17-5.23,2.17h-23.97
		l-10.96,216.22c-0.34,7.48-3.19,13.64-8.54,18.49c-5.35,4.84-11.77,7.27-19.25,7.27h-128
		C185.45,406.63,178.91,404.21,173.64,399.37z M218.39,365.2c1.1-1.27,1.57-2.93,1.4-4.97l-8.41-158.08
		c-0.17-4.08-2.55-6.12-7.14-6.12c-5.27,0-7.82,2.29-7.65,6.88l10.2,157.57c0.34,4.42,2.55,6.63,6.63,6.63
		C215.62,367.11,217.28,366.48,218.39,365.2z M299.34,150.39v-22.95c0-4.42-1.53-7.94-4.59-10.58c-3.06-2.63-7.14-3.95-12.24-3.95
		h-53.29c-4.93,0-8.89,1.32-11.86,3.95c-2.97,2.64-4.46,6.16-4.46,10.58v22.95H299.34z M262.88,360.23V202.66
		c0-4.42-2.38-6.63-7.14-6.63c-4.76,0-7.14,2.21-7.14,6.63v157.57c0,4.42,2.38,6.63,7.14,6.63
		C260.5,366.86,262.88,364.65,262.88,360.23z M304.7,360.48l9.69-157.57c0.51-4.59-1.78-6.88-6.88-6.88c-4.76,0-7.23,2.04-7.39,6.12
		l-8.67,158.08c-0.17,2.04,0.29,3.7,1.4,4.97c1.1,1.27,2.84,1.91,5.23,1.91C301.98,367.11,304.19,364.91,304.7,360.48z"/>
</g>
</svg>
