<svg version="1.1" id="Слой_1" xmlns="http://www.w3.org/2000/svg" xmlns:xlink="http://www.w3.org/1999/xlink" x="0px" y="0px"
     viewBox="0 0 512 512" style="enable-background:new 0 0 512 512;" xml:space="preserve">
<g>
    <path d="M411.66,341.07c22.68,0,39.87-5.5,51.55-16.5s17.52-24.99,17.52-41.97c0-17.39-5.43-32.06-16.3-44.01
        c-10.87-11.95-25.54-20.1-44.01-24.45c-2.17-0.41-3.12-1.83-2.85-4.28c0.14-4.48,0.34-9.07,0.61-13.75c0.27-4.69,0.27-9.07,0-13.14
        c-1.36-21.19-7.23-40.58-17.62-58.17S376.31,93.1,359,82.51s-37.12-15.89-59.39-15.89c-17.79,0-33.21,3.06-46.25,9.17
        c-13.04,6.11-24.25,14.13-33.62,24.04s-17.39,20.78-24.04,32.6c-1.09,1.77-2.72,2.38-4.89,1.83c-14.26-4.21-28.15-4.69-41.67-1.43
        c-13.52,3.26-24.65,10.53-33.41,21.8s-13.14,26.89-13.14,46.86c0,2.72-1.15,4.07-3.46,4.07c-21.6,0-38.34,6.45-50.22,19.36
        s-17.83,29.14-17.83,48.7c0,12.63,2.92,24.04,8.76,34.23c5.84,10.19,14.47,18.27,25.88,24.25c11.41,5.98,25.4,8.96,41.97,8.96
        h88.63v25.06h-88.43c-21.46,0-39.77-4.11-54.91-12.33c-15.15-8.22-26.76-19.32-34.84-33.31C10.04,306.5,6,290.88,6,273.62
        c0-15.48,3.02-29.54,9.07-42.18c6.04-12.63,14.64-22.96,25.77-30.97c11.14-8.01,24.18-12.9,39.12-14.67
        c0-14.13,3.19-26.69,9.58-37.69c6.38-11,14.67-20.07,24.86-27.2c10.19-7.13,21.33-11.85,33.41-14.16
        c12.09-2.31,23.84-1.77,35.25,1.63c7.61-12.09,16.95-23.23,28.02-33.41s23.97-18.27,38.71-24.25c14.74-5.98,31.34-8.96,49.82-8.96
        c20.37,0,39.29,3.8,56.74,11.41s32.7,18.3,45.74,32.09c13.04,13.79,23.09,30.05,30.15,48.8s10.46,39.26,10.19,61.53
        c20.24,7.2,35.89,18.58,46.96,34.13c11.07,15.55,16.61,33.18,16.61,52.87c0,15.89-3.74,30.12-11.21,42.69s-18.2,22.51-32.19,29.85
        s-30.9,11-50.73,11h-97.39v-25.06H411.66z M246.83,466.68c-2.44-2.38-3.67-5.2-3.67-8.46V256.71l0.81-34.23l-18.34,18.74
        L191,275.87c-2.58,2.58-5.5,3.87-8.76,3.87c-3.12,0-5.77-1.02-7.95-3.06c-2.17-2.04-3.26-4.69-3.26-7.95s1.22-6.04,3.67-8.35
        l71.92-68.66c1.49-1.49,2.92-2.55,4.28-3.16c1.36-0.61,2.92-0.92,4.69-0.92c1.49,0,2.95,0.31,4.38,0.92
        c1.43,0.61,2.89,1.66,4.38,3.16l71.72,68.66c2.44,2.31,3.67,5.09,3.67,8.35s-1.09,5.91-3.26,7.95c-2.17,2.04-4.82,3.06-7.95,3.06
        c-3.26,0-6.11-1.29-8.56-3.87l-34.84-34.64L267,222.48l0.82,34.23v201.51c0,3.26-1.22,6.08-3.67,8.46s-5.3,3.57-8.56,3.57
        C252.2,470.24,249.28,469.05,246.83,466.68z"/>
</g>
</svg>
